<svg t="1677816969343" class="icon" viewBox="0 0 1024 1024" version="1.1" xmlns="http://www.w3.org/2000/svg" p-id="1085" width="200" height="200"><path d="M654.6 355.6l-39.7 498.1H425.1l-35.7-498.1h137.9l27.9-115.9H333.5l51.2 647.1h272.7l57-647.1H570.2l-27.9 115.9h112.3z m-292.9 23.7c-3.4-28-6.3-56.2-8.6-84.3-0.3-3.8 3.5-7 7-7 4 0 6.7 3.2 7 7 2.3 28.2 5.2 56.3 8.6 84.3 0.5 3.8-3.6 7-7 7-4.1 0-6.5-3.2-7-7z m10.9 34.1c-9 0-9-14 0-14s9 14 0 14z" fill="#F9F2F3" p-id="1086"></path><path d="M734.2 169.1l1.3-14.6-156.3-14.7-24 99.8-27.9 116h15l27.9-116 20.3-84z" fill="#F4E4D3" p-id="1087"></path><path d="M425.1 853.6h189.8l39.7-498.1H542.3l-7.8 32.5-14.2-3.4 7-29.1H389.4l35.7 498.1z m176.8-392.8c11.2 0 20.2 9 20.2 20.2s-9 20.2-20.2 20.2-20.2-9-20.2-20.2 9-20.2 20.2-20.2z m-49.1-10.2c2.5 0 4.5 2 4.5 4.5s-2 4.5-4.5 4.5-4.5-2-4.5-4.5 1.9-4.5 4.5-4.5z m-12.7 60.3c7.8 0 14.2 6.3 14.2 14.2 0 7.8-6.3 14.2-14.2 14.2-7.8 0-14.2-6.3-14.2-14.2 0.1-7.8 6.4-14.2 14.2-14.2z m-17-66c1.6 0 2.8 1.3 2.8 2.8s-1.3 2.8-2.8 2.8c-1.6 0-2.8-1.3-2.8-2.8s1.3-2.8 2.8-2.8z m-19.6 30.5c3.1 0 5.6 2.5 5.6 5.6s-2.5 5.6-5.6 5.6-5.6-2.5-5.6-5.6 2.5-5.6 5.6-5.6z m-45.4-67.6c11.3 0 20.5 9.2 20.5 20.5s-9.2 20.5-20.5 20.5-20.5-9.2-20.5-20.5 9.2-20.5 20.5-20.5z" fill="#F9F2F3" p-id="1088"></path><path d="M425.1 853.6h189.8l39.7-498.1H542.3l-7.8 32.5-14.2-3.4 7-29.1H389.4l35.7 498.1z m176.8-392.8c11.2 0 20.2 9 20.2 20.2s-9 20.2-20.2 20.2-20.2-9-20.2-20.2 9-20.2 20.2-20.2z m-49.1-10.2c2.5 0 4.5 2 4.5 4.5s-2 4.5-4.5 4.5-4.5-2-4.5-4.5 1.9-4.5 4.5-4.5z m-12.7 60.3c7.8 0 14.2 6.3 14.2 14.2 0 7.8-6.3 14.2-14.2 14.2-7.8 0-14.2-6.3-14.2-14.2 0.1-7.8 6.4-14.2 14.2-14.2z m-17-66c1.6 0 2.8 1.3 2.8 2.8s-1.3 2.8-2.8 2.8c-1.6 0-2.8-1.3-2.8-2.8s1.3-2.8 2.8-2.8z m-19.6 30.5c3.1 0 5.6 2.5 5.6 5.6s-2.5 5.6-5.6 5.6-5.6-2.5-5.6-5.6 2.5-5.6 5.6-5.6z m-45.4-67.6c11.3 0 20.5 9.2 20.5 20.5s-9.2 20.5-20.5 20.5-20.5-9.2-20.5-20.5 9.2-20.5 20.5-20.5z" fill="#F4C28C" opacity=".86" p-id="1089"></path><path d="M534.5 388.1l7.8-32.5h-15l-7 29z" fill="#F4E4D3" p-id="1090"></path><path d="M534.5 388.1l7.8-32.5h-15l-7 29z" fill="#F4C28C" opacity=".86" p-id="1091"></path><path d="M375.7 379.3c-3.4-28-6.3-56.2-8.6-84.3-0.3-3.8-3-7-7-7-3.6 0-7.3 3.2-7 7 2.3 28.2 5.2 56.3 8.6 84.3 0.5 3.8 2.9 7 7 7 3.5 0 7.5-3.2 7-7zM372.6 399.4c-9 0-9 14 0 14s9-14 0-14z" fill="#FFFFFF" p-id="1092"></path><path d="M450.299332 447.305893a20.5 20.5 0 1 0 15.69002-37.879061 20.5 20.5 0 1 0-15.69002 37.879061Z" fill="#F2EDE7" p-id="1093"></path><path d="M587.579721 495.282552a20.2 20.2 0 1 0 28.566615-28.567613 20.2 20.2 0 1 0-28.566615 28.567613Z" fill="#F2EDE7" p-id="1094"></path><path d="M523.1 450.6c1.6 0 2.8-1.3 2.8-2.8s-1.3-2.8-2.8-2.8c-1.6 0-2.8 1.3-2.8 2.8s1.3 2.8 2.8 2.8z" fill="#F2EDE7" p-id="1095"></path><path d="M552.8 455.1m-4.5 0a4.5 4.5 0 1 0 9 0 4.5 4.5 0 1 0-9 0Z" fill="#F2EDE7" p-id="1096"></path><path d="M503.5 481m-5.6 0a5.6 5.6 0 1 0 11.2 0 5.6 5.6 0 1 0-11.2 0Z" fill="#F2EDE7" p-id="1097"></path><path d="M540.1 525.1m-14.2 0a14.2 14.2 0 1 0 28.4 0 14.2 14.2 0 1 0-28.4 0Z" fill="#F2EDE7" p-id="1098"></path></svg>